<?xml version="1.0" encoding="UTF-8"?>
<svg id="Lettermark" xmlns="http://www.w3.org/2000/svg" version="1.1" viewBox="0 0 1080 1080">
  <g id="Inner_Petals" data-name="Inner Petals">
    <path fill="#ffd64a" d="M664.2,140.4c5.3-3.9,12.8-2.4,16.2,3.1,10.7,17.3,18.1,36.8,21.5,58.1,9.6,60.3-16.3,118.3-62.2,152.5-5.2,3.9-12.8,2.4-16.2-3.1-29.9-48.9-32.3-112.3-.8-164.7,11-18.5,25.2-33.8,41.5-45.8h0Z"/>
    <path fill="#f34f34" d="M509.2,369.1c-1.5,6.4-8.2,10.2-14.5,8.1-54.3-18.2-97-65.3-106.6-125.6-3.4-21.2-2.4-42.2,2.4-61.9,1.6-6.5,8.5-10,14.8-7.9,1.6.6,3.3,1.1,4.9,1.7,17.6,6.5,34,16.3,48.6,28.9,32,27.8,51.3,66.4,54.3,108.8,1.1,16.4-.2,32.5-3.9,48Z"/>
    <path fill="#206d3f" d="M391,425.2c11.4,11.8,20.8,25,28,39.3,2.9,5.8.2,13-5.9,15.4-53.3,21-116.2,12.4-162.5-27.7-16-13.9-28.8-30.5-38-48.9-2.9-5.9-.2-13.1,5.9-15.5,18.3-7.3,38-11.1,58.3-11.1s1.8,0,2.7,0c42.5.7,82,17.9,111.5,48.4Z"/>
    <path fill="#a7e3bf" d="M208.1,665.8c9.8-18.2,23.2-34.3,39.6-47.7,29.4-23.8,64.7-35.4,99.9-35.4s43.3,4.4,63.4,13.1c6,2.6,8.5,9.8,5.4,15.6-7.6,14-17.4,27-29.3,38.4-30.5,29.5-70.6,45.5-113,44.6-21.6-.4-42.2-5-60.8-13.2-5.9-2.6-8.3-9.8-5.2-15.4h0"/>
    <path fill="#f1608c" d="M378.6,823.3c11.6-60,55.8-105.6,110.6-122,6.3-1.9,12.9,2.2,14.2,8.6,11.3,56.1-8.1,116.5-55.5,154.9-16.7,13.5-35.4,23.1-54.8,28.9-6.3,1.9-12.9-2.1-14.2-8.5-4.1-20.1-4.2-41-.2-61.8h0Z"/>
    <path fill="#a73344" d="M690.5,883.6c-4.1,21.1-12.2,40.4-23.4,57.3-3.6,5.5-11.2,6.7-16.3,2.6-15.8-12.6-29.5-28.4-40-47.2-29.7-53.5-25.2-116.8,6.3-164.6,3.6-5.5,11.2-6.7,16.3-2.6,44.8,35.7,68.8,94.5,57.2,154.5Z"/>
    <path fill="#006476" d="M835.5,803.1c-55.8-21.4-94.2-72.7-101-130.1-.8-6.5,4.3-12.3,10.8-12.5,57.3-1.4,113.5,28.2,143.1,81.7,10.4,18.8,16.7,38.8,18.9,58.9.7,6.5-4.3,12.3-10.9,12.5-20.7.6-41.3-3-61-10.5h0Z"/>
    <path fill="#ffd64a" d="M844.1,287.2c20.1-6.9,40.8-9.7,61.3-8.5,6.5.4,11.4,6.4,10.5,12.9-2.9,20.1-9.8,39.9-20.9,58.4-21.8,36.4-56.5,62.1-97.7,72.4-15.9,4-32.1,5.4-48,4.5-6.5-.4-11.5-6.4-10.5-12.8,8.5-57.3,48.2-107.1,105.3-126.8h0Z"/>
  </g>
  <g id="C_Ring" data-name="C Ring">
    <path fill="#17151D" d="M640.1,622l-.4.2c-18.8,10.5-40.7,13.9-61.8,9.8h-.4c0,0-.3-.1-.3-.1-21.2-4-40.2-15.4-53.8-32.2l-.3-.4-.3-.4c-13.5-16.7-20.8-37.6-20.4-59.1v-1c.3-21.5,8.2-42.2,22.3-58.4l.3-.4.3-.4c14.1-16.3,33.5-27,54.7-30.3h.4c0,0,.3-.1.3-.1,21.3-3.5,43.1.8,61.5,11.9l.5.3c35.5,21.3,75.2,32.2,115.6,32.2s36.9-2.3,55.1-6.9c29.2-7.3,56.2-20.1,79.7-37.5,23.5-17.4,43.5-39.5,59.1-65.3,64-106.6,29.2-245.5-77.4-309.4-56.2-33.7-121.3-40-179.7-22.8-3.6,1-7.4.3-10.3-2C637.1,12,574.3-6.5,509.6,3.8c-64.6,10.3-118.6,47.2-152.2,97.9-2.1,3.1-5.5,5-9.2,5.1-3.1,0-6.2.2-9.4.5-60.1,4.3-114.9,31.7-154.4,77.2-39.5,45.5-58.9,103.7-54.7,163.8.2,3.1.5,6.1.9,9.2.4,3.7-1,7.3-3.8,9.8-2.3,2-4.6,4.2-6.8,6.3-43.3,41.9-67.7,98.1-68.7,158.4-1.1,65.5,25.9,125,69.9,166.9,2.7,2.6,4,6.3,3.4,10-.4,3.1-.8,6.2-1.2,9.3-6.2,59.9,11.2,118.7,49.1,165.5,41.3,50.9,100.2,79.1,160.9,82.9,3.7.2,7,2.2,9,5.4,1.6,2.7,3.3,5.3,5.1,7.9,33.8,49.9,84.9,83.7,144.1,95.2,14.4,2.8,28.8,4.1,42.9,4.1,49,0,95.7-16.1,133.7-44.1,3-2.2,6.8-2.8,10.4-1.6,22.9,7.6,47,11.5,71.3,11.5,37,0,74.5-9.1,109.1-28.3,108.8-60.4,148.1-198,87.7-306.7-60.4-108.8-198-148.1-306.7-87.7h0ZM759.1,109.2c27.8,0,55.9,7.3,81.4,22.6,26.4,15.8,46.5,38.1,59.5,63.7,3.8,7.4-1.7,16-10,16.2-22.9.6-45.8,4.7-67.7,12.2-12.3,4.2-24,9.4-35.1,15.6-7.6,4.2-16.8-1.3-16.6-10,.2-12.6-.8-25.5-2.8-38.4-3.8-23.4-11-45.5-21.1-65.6-3.7-7.3,1.7-16.1,10-16.2.8,0,1.6,0,2.4,0h0ZM844.1,286.9c20.1-6.9,40.8-9.7,61.3-8.5,6.5.4,11.4,6.4,10.5,12.9-2.9,20.1-9.8,39.9-20.9,58.4-21.8,36.4-56.5,62.1-97.7,72.4-15.9,4-32.1,5.4-48,4.5-6.5-.4-11.5-6.4-10.5-12.8,8.5-57.3,48.2-107.1,105.3-126.8h0ZM664.2,140.4c5.3-3.9,12.8-2.4,16.2,3.1,10.7,17.3,18.1,36.8,21.5,58.1,9.6,60.3-16.3,118.3-62.2,152.5-5.2,3.9-12.8,2.4-16.2-3.1-29.9-48.9-32.3-112.3-.8-164.7,11-18.5,25.2-33.8,41.5-45.8h0ZM520.1,69.7c8.4-1.4,16.8-2,25.1-2,21.5,0,42.2,4.4,61.2,12.4,7.6,3.2,9.3,13.4,3.1,18.8-16.9,14.9-31.9,32.6-44.1,53-6.7,11.2-12.3,22.7-16.9,34.5-3.1,8-13.7,9.7-19.1,3.1-8.1-9.8-17.1-19-26.9-27.6-17.7-15.4-37.4-27.7-58.3-36.8-7.5-3.3-9.4-13.2-3.2-18.6,21.6-18.8,48.6-32,79-36.8h0ZM390.6,189.6c1.6-6.5,8.5-10,14.8-7.9,1.6.6,3.3,1.1,4.9,1.8,17.6,6.5,34,16.3,48.6,28.9,32,27.8,51.3,66.4,54.3,108.7,1.1,16.4-.2,32.5-3.9,48-1.5,6.4-8.2,10.2-14.5,8.1-54.3-18.2-97-65.3-106.6-125.6-3.4-21.2-2.4-42.2,2.4-61.9h0ZM391,425.2c11.4,11.8,20.8,25,28,39.3,2.9,5.8.2,13-5.9,15.4-53.3,21-116.2,12.4-162.5-27.7-16-13.9-28.8-30.5-38-48.9-2.9-5.9-.2-13.1,5.9-15.5,18.3-7.3,38-11.1,58.3-11.1s1.8,0,2.7,0c42.5.7,82,17.9,111.5,48.4ZM234.7,228.1c19.7-22.6,44.8-38.9,72.8-47.6,7.9-2.4,15.7,4.2,14.5,12.4-3.4,22.3-3.4,45.6.3,69,2.1,12.9,5.2,25.3,9.2,37.3,2.8,8.2-4.2,16.2-12.7,14.6-12.5-2.3-25.3-3.6-38.3-3.9-23.5-.4-46.5,2.8-68.4,9.4-7.9,2.4-15.7-4.1-14.4-12.3,4.6-29,17.2-56.3,36.9-79.1h0ZM159.4,617.2c-4.5,6.8-14.6,6.9-18.9-.1-14.8-24.6-23.1-53.4-22.6-84.2.5-30.1,9.3-58.8,25.3-83.5,4.5-6.9,14.6-6.5,18.9.5,11.9,19.5,26.9,37.2,44.6,52.6,9.9,8.6,20.3,16.1,31.1,22.7,7.4,4.5,7.2,15.2-.3,19.4-11,6.2-21.7,13.4-31.8,21.6-18.2,14.8-33.8,32-46.3,51h0ZM313.1,810.6c-4.5,23-5.3,46.2-2.7,68.8,1,8.2-6.8,14.7-14.6,12-27-9.3-51.9-26.1-71.3-50-18.9-23.3-30.6-50.8-34.2-79.9-1-8.2,6.9-14.8,14.8-12.1,21.4,7.2,44.3,11.3,68,11.7h3.9c11.6,0,23.1-.9,34.5-2.6,8.5-1.3,15.3,7,12.3,15.1-4.5,11.8-8,24.2-10.5,37h0ZM274.2,694.4c-21.6-.4-42.2-5-60.8-13.2-5.9-2.6-8.3-9.8-5.2-15.4h0c9.8-18.2,23.2-34.3,39.6-47.7,29.4-23.8,64.7-35.4,99.9-35.4s43.3,4.4,63.4,13.1c6,2.6,8.5,9.8,5.4,15.6-7.6,14-17.4,27-29.3,38.4-30.5,29.5-70.6,45.5-113,44.6h0ZM378.6,823.3c11.6-60,55.8-105.6,110.6-122,6.3-1.9,12.9,2.2,14.2,8.6,11.3,56.1-8.1,116.5-55.5,154.9-16.7,13.5-35.4,23.1-54.8,28.9-6.3,1.9-12.9-2.1-14.2-8.5-4.1-20.1-4.2-41-.2-61.8h0ZM504.4,1009.4c-29.5-5.7-56.1-19.3-77.6-39.2-6-5.6-4.2-15.8,3.5-18.8,21-8.2,41.2-19.8,59.6-34.8,10.1-8.2,19.4-17.2,27.7-26.7,5.7-6.5,16.2-4.5,19,3.7,4.2,11.9,9.4,23.7,15.8,35.1,11.5,20.8,25.8,39,42.3,54.5,6,5.6,3.9,15.7-3.7,18.7-26.7,10.2-56.5,13.3-86.6,7.5h0ZM690.5,883.6c-4.1,21.1-12.2,40.4-23.4,57.3-3.6,5.5-11.2,6.7-16.3,2.6-15.8-12.6-29.5-28.4-40-47.2-29.7-53.5-25.2-116.8,6.3-164.6,3.6-5.5,11.2-6.7,16.3-2.6,44.8,35.7,68.8,94.5,57.2,154.5ZM826.7,958.1c-26.7,14.9-55.9,21.1-84.5,19.8-8.3-.4-13.5-9.3-9.5-16.6,10.8-19.8,18.8-41.6,23.3-64.9,2.5-12.8,3.8-25.7,4.1-38.3.2-8.6,9.5-13.8,17-9.4,10.9,6.5,22.5,12.1,34.6,16.8,18.6,7.1,53.1,11.7,71.8,13.8,6.5.7,10,7.7,7,13.4-13.9,26.7-35.5,49.8-63.8,65.5h0ZM835.5,803.1c-55.8-21.4-94.2-72.7-101-130.1-.8-6.5,4.3-12.3,10.8-12.5,57.3-1.4,113.5,28.2,143.1,81.7,10.4,18.8,16.7,38.8,18.9,58.9.7,6.5-4.3,12.3-10.9,12.5-20.7.6-41.3-3-61-10.5h0Z"/>
  </g>
</svg>
